<mxfile host="Electron" modified="2023-06-18T08:50:01.585Z" agent="Mozilla/5.0 (X11; Linux x86_64) AppleWebKit/537.36 (KHTML, like Gecko) draw.io/21.3.7 Chrome/112.0.5615.204 Electron/24.5.0 Safari/537.36" etag="xo9rzBn6FSy_8qUzZJDD" version="21.3.7" type="device">
  <diagram name="Page-1" id="DbOC_s7ybhaEqFvPEaZr">
    <mxGraphModel dx="1591" dy="2125" grid="1" gridSize="10" guides="1" tooltips="1" connect="1" arrows="1" fold="1" page="1" pageScale="1" pageWidth="827" pageHeight="1169" math="0" shadow="0">
      <root>
        <mxCell id="0" />
        <mxCell id="1" parent="0" />
        <mxCell id="xCIMGPuieZ38wntVMGZL-1" value="Grabber" style="swimlane;whiteSpace=wrap;html=1;container=1;collapsible=0;comic=0;noLabel=0;swimlaneFillColor=#E6FFCC;fillColor=#d5e8d4;strokeColor=#82b366;" parent="1" vertex="1">
          <mxGeometry x="156" y="150" width="660" height="290" as="geometry" />
        </mxCell>
        <mxCell id="xCIMGPuieZ38wntVMGZL-13" value="Grabber functions" style="swimlane;fontStyle=0;childLayout=stackLayout;horizontal=1;startSize=26;fillColor=#ffe6cc;horizontalStack=0;resizeParent=1;resizeParentMax=0;resizeLast=0;collapsible=0;marginBottom=0;whiteSpace=wrap;html=1;strokeColor=#d79b00;swimlaneFillColor=default;" parent="xCIMGPuieZ38wntVMGZL-1" vertex="1">
          <mxGeometry x="20" y="100" width="140" height="104" as="geometry" />
        </mxCell>
        <mxCell id="xCIMGPuieZ38wntVMGZL-14" value="-&amp;gt; set_frame_rate()" style="text;strokeColor=none;fillColor=none;align=left;verticalAlign=top;spacingLeft=4;spacingRight=4;overflow=hidden;rotatable=0;points=[[0,0.5],[1,0.5]];portConstraint=eastwest;whiteSpace=wrap;html=1;" parent="xCIMGPuieZ38wntVMGZL-13" vertex="1">
          <mxGeometry y="26" width="140" height="26" as="geometry" />
        </mxCell>
        <mxCell id="xCIMGPuieZ38wntVMGZL-15" value="-&amp;gt; set_pixel_format()" style="text;strokeColor=none;fillColor=none;align=left;verticalAlign=top;spacingLeft=4;spacingRight=4;overflow=hidden;rotatable=0;points=[[0,0.5],[1,0.5]];portConstraint=eastwest;whiteSpace=wrap;html=1;" parent="xCIMGPuieZ38wntVMGZL-13" vertex="1">
          <mxGeometry y="52" width="140" height="26" as="geometry" />
        </mxCell>
        <mxCell id="xCIMGPuieZ38wntVMGZL-16" value="&amp;lt;- get_data()" style="text;strokeColor=none;fillColor=none;align=left;verticalAlign=top;spacingLeft=4;spacingRight=4;overflow=hidden;rotatable=0;points=[[0,0.5],[1,0.5]];portConstraint=eastwest;whiteSpace=wrap;html=1;" parent="xCIMGPuieZ38wntVMGZL-13" vertex="1">
          <mxGeometry y="78" width="140" height="26" as="geometry" />
        </mxCell>
        <mxCell id="xCIMGPuieZ38wntVMGZL-17" value="FrameGenerator (cv2)" style="swimlane;fontStyle=0;childLayout=stackLayout;horizontal=1;startSize=26;fillColor=#ffe6cc;horizontalStack=0;resizeParent=1;resizeParentMax=0;resizeLast=0;collapsible=0;marginBottom=0;whiteSpace=wrap;html=1;strokeColor=#d79b00;swimlaneFillColor=default;" parent="xCIMGPuieZ38wntVMGZL-1" vertex="1">
          <mxGeometry x="20" y="28" width="140" height="52" as="geometry" />
        </mxCell>
        <mxCell id="xCIMGPuieZ38wntVMGZL-20" value="&amp;lt;- get_data()" style="text;strokeColor=none;fillColor=none;align=left;verticalAlign=top;spacingLeft=4;spacingRight=4;overflow=hidden;rotatable=0;points=[[0,0.5],[1,0.5]];portConstraint=eastwest;whiteSpace=wrap;html=1;" parent="xCIMGPuieZ38wntVMGZL-17" vertex="1">
          <mxGeometry y="26" width="140" height="26" as="geometry" />
        </mxCell>
        <mxCell id="xCIMGPuieZ38wntVMGZL-29" style="edgeStyle=orthogonalEdgeStyle;rounded=0;orthogonalLoop=1;jettySize=auto;html=1;entryX=-0.012;entryY=0.096;entryDx=0;entryDy=0;entryPerimeter=0;" parent="xCIMGPuieZ38wntVMGZL-1" source="xCIMGPuieZ38wntVMGZL-26" target="xCIMGPuieZ38wntVMGZL-30" edge="1">
          <mxGeometry relative="1" as="geometry">
            <mxPoint x="270" y="132.5" as="targetPoint" />
          </mxGeometry>
        </mxCell>
        <mxCell id="xCIMGPuieZ38wntVMGZL-26" value="" style="strokeWidth=2;html=1;shape=mxgraph.flowchart.decision;whiteSpace=wrap;" parent="xCIMGPuieZ38wntVMGZL-1" vertex="1">
          <mxGeometry x="190" y="120" width="30" height="25" as="geometry" />
        </mxCell>
        <mxCell id="xCIMGPuieZ38wntVMGZL-27" style="edgeStyle=orthogonalEdgeStyle;rounded=0;orthogonalLoop=1;jettySize=auto;html=1;entryX=0.5;entryY=0;entryDx=0;entryDy=0;entryPerimeter=0;" parent="xCIMGPuieZ38wntVMGZL-1" source="xCIMGPuieZ38wntVMGZL-20" target="xCIMGPuieZ38wntVMGZL-26" edge="1">
          <mxGeometry relative="1" as="geometry" />
        </mxCell>
        <mxCell id="xCIMGPuieZ38wntVMGZL-28" style="edgeStyle=orthogonalEdgeStyle;rounded=0;orthogonalLoop=1;jettySize=auto;html=1;entryX=0.5;entryY=1;entryDx=0;entryDy=0;entryPerimeter=0;" parent="xCIMGPuieZ38wntVMGZL-1" source="xCIMGPuieZ38wntVMGZL-16" target="xCIMGPuieZ38wntVMGZL-26" edge="1">
          <mxGeometry relative="1" as="geometry" />
        </mxCell>
        <mxCell id="xCIMGPuieZ38wntVMGZL-30" value="frames_loop" style="swimlane;fontStyle=0;childLayout=stackLayout;horizontal=1;startSize=26;fillColor=#ffe6cc;horizontalStack=0;resizeParent=1;resizeParentMax=0;resizeLast=0;collapsible=0;marginBottom=0;whiteSpace=wrap;html=1;strokeColor=#d79b00;swimlaneFillColor=default;" parent="xCIMGPuieZ38wntVMGZL-1" vertex="1">
          <mxGeometry x="260" y="54.5" width="210" height="156" as="geometry" />
        </mxCell>
        <mxCell id="xCIMGPuieZ38wntVMGZL-31" value="show_frames_cv2()" style="text;strokeColor=none;fillColor=none;align=left;verticalAlign=top;spacingLeft=4;spacingRight=4;overflow=hidden;rotatable=0;points=[[0,0.5],[1,0.5]];portConstraint=eastwest;whiteSpace=wrap;html=1;" parent="xCIMGPuieZ38wntVMGZL-30" vertex="1">
          <mxGeometry y="26" width="210" height="26" as="geometry" />
        </mxCell>
        <mxCell id="xCIMGPuieZ38wntVMGZL-32" value="save_frames_cv2()" style="text;strokeColor=none;fillColor=none;align=left;verticalAlign=top;spacingLeft=4;spacingRight=4;overflow=hidden;rotatable=0;points=[[0,0.5],[1,0.5]];portConstraint=eastwest;whiteSpace=wrap;html=1;" parent="xCIMGPuieZ38wntVMGZL-30" vertex="1">
          <mxGeometry y="52" width="210" height="26" as="geometry" />
        </mxCell>
        <mxCell id="xCIMGPuieZ38wntVMGZL-33" value="gst_send()" style="text;strokeColor=none;fillColor=none;align=left;verticalAlign=top;spacingLeft=4;spacingRight=4;overflow=hidden;rotatable=0;points=[[0,0.5],[1,0.5]];portConstraint=eastwest;whiteSpace=wrap;html=1;" parent="xCIMGPuieZ38wntVMGZL-30" vertex="1">
          <mxGeometry y="78" width="210" height="26" as="geometry" />
        </mxCell>
        <mxCell id="xCIMGPuieZ38wntVMGZL-121" value="send_reports()" style="text;strokeColor=none;fillColor=none;align=left;verticalAlign=top;spacingLeft=4;spacingRight=4;overflow=hidden;rotatable=0;points=[[0,0.5],[1,0.5]];portConstraint=eastwest;whiteSpace=wrap;html=1;" parent="xCIMGPuieZ38wntVMGZL-30" vertex="1">
          <mxGeometry y="104" width="210" height="26" as="geometry" />
        </mxCell>
        <mxCell id="xCIMGPuieZ38wntVMGZL-122" value="handle_command(item)" style="text;strokeColor=none;fillColor=none;align=left;verticalAlign=top;spacingLeft=4;spacingRight=4;overflow=hidden;rotatable=0;points=[[0,0.5],[1,0.5]];portConstraint=eastwest;whiteSpace=wrap;html=1;" parent="xCIMGPuieZ38wntVMGZL-30" vertex="1">
          <mxGeometry y="130" width="210" height="26" as="geometry" />
        </mxCell>
        <mxCell id="xCIMGPuieZ38wntVMGZL-125" value="Commands Callbacks" style="swimlane;fontStyle=0;childLayout=stackLayout;horizontal=1;startSize=26;fillColor=#ffe6cc;horizontalStack=0;resizeParent=1;resizeParentMax=0;resizeLast=0;collapsible=0;marginBottom=0;whiteSpace=wrap;html=1;strokeColor=#d79b00;swimlaneFillColor=default;" parent="xCIMGPuieZ38wntVMGZL-1" vertex="1">
          <mxGeometry x="324" y="228" width="140" height="52" as="geometry" />
        </mxCell>
        <mxCell id="xCIMGPuieZ38wntVMGZL-126" value="set_frame_rate()" style="text;strokeColor=none;fillColor=none;align=left;verticalAlign=top;spacingLeft=4;spacingRight=4;overflow=hidden;rotatable=0;points=[[0,0.5],[1,0.5]];portConstraint=eastwest;whiteSpace=wrap;html=1;" parent="xCIMGPuieZ38wntVMGZL-125" vertex="1">
          <mxGeometry y="26" width="140" height="26" as="geometry" />
        </mxCell>
        <mxCell id="xCIMGPuieZ38wntVMGZL-150" style="edgeStyle=orthogonalEdgeStyle;rounded=0;orthogonalLoop=1;jettySize=auto;html=1;" parent="xCIMGPuieZ38wntVMGZL-1" source="xCIMGPuieZ38wntVMGZL-127" target="xCIMGPuieZ38wntVMGZL-122" edge="1">
          <mxGeometry relative="1" as="geometry" />
        </mxCell>
        <mxCell id="xCIMGPuieZ38wntVMGZL-127" value="Commands&lt;br&gt;Queue" style="rounded=0;whiteSpace=wrap;html=1;" parent="xCIMGPuieZ38wntVMGZL-1" vertex="1">
          <mxGeometry x="544" y="210.5" width="90" height="50" as="geometry" />
        </mxCell>
        <mxCell id="xCIMGPuieZ38wntVMGZL-4" value="MessagesHandler" style="swimlane;whiteSpace=wrap;html=1;container=1;collapsible=0;comic=0;noLabel=0;swimlaneFillColor=#E6FFCC;fillColor=#d5e8d4;strokeColor=#82b366;" parent="1" vertex="1">
          <mxGeometry x="900" y="150" width="390" height="140" as="geometry" />
        </mxCell>
        <mxCell id="xCIMGPuieZ38wntVMGZL-71" value="Communicator" style="swimlane;fontStyle=0;childLayout=stackLayout;horizontal=1;startSize=26;fillColor=#ffe6cc;horizontalStack=0;resizeParent=1;resizeParentMax=0;resizeLast=0;collapsible=0;marginBottom=0;whiteSpace=wrap;html=1;strokeColor=#d79b00;swimlaneFillColor=default;" parent="xCIMGPuieZ38wntVMGZL-4" vertex="1">
          <mxGeometry x="270" y="50" width="90" height="78" as="geometry" />
        </mxCell>
        <mxCell id="xCIMGPuieZ38wntVMGZL-72" value="send()" style="text;strokeColor=none;fillColor=none;align=left;verticalAlign=top;spacingLeft=4;spacingRight=4;overflow=hidden;rotatable=0;points=[[0,0.5],[1,0.5]];portConstraint=eastwest;whiteSpace=wrap;html=1;" parent="xCIMGPuieZ38wntVMGZL-71" vertex="1">
          <mxGeometry y="26" width="90" height="26" as="geometry" />
        </mxCell>
        <mxCell id="xCIMGPuieZ38wntVMGZL-73" value="recev_select()" style="text;strokeColor=none;fillColor=none;align=left;verticalAlign=top;spacingLeft=4;spacingRight=4;overflow=hidden;rotatable=0;points=[[0,0.5],[1,0.5]];portConstraint=eastwest;whiteSpace=wrap;html=1;" parent="xCIMGPuieZ38wntVMGZL-71" vertex="1">
          <mxGeometry y="52" width="90" height="26" as="geometry" />
        </mxCell>
        <mxCell id="xCIMGPuieZ38wntVMGZL-97" style="edgeStyle=orthogonalEdgeStyle;rounded=0;orthogonalLoop=1;jettySize=auto;html=1;entryX=0;entryY=0.5;entryDx=0;entryDy=0;exitX=1;exitY=0.5;exitDx=0;exitDy=0;" parent="xCIMGPuieZ38wntVMGZL-4" source="xCIMGPuieZ38wntVMGZL-128" target="xCIMGPuieZ38wntVMGZL-72" edge="1">
          <mxGeometry relative="1" as="geometry">
            <mxPoint x="200" y="89.00000000000011" as="sourcePoint" />
          </mxGeometry>
        </mxCell>
        <mxCell id="xCIMGPuieZ38wntVMGZL-86" style="edgeStyle=orthogonalEdgeStyle;rounded=0;orthogonalLoop=1;jettySize=auto;html=1;entryX=1;entryY=0.5;entryDx=0;entryDy=0;" parent="xCIMGPuieZ38wntVMGZL-4" source="xCIMGPuieZ38wntVMGZL-73" target="xCIMGPuieZ38wntVMGZL-129" edge="1">
          <mxGeometry relative="1" as="geometry">
            <mxPoint x="200" y="115" as="targetPoint" />
          </mxGeometry>
        </mxCell>
        <mxCell id="xCIMGPuieZ38wntVMGZL-128" value="send_reports()" style="rounded=0;whiteSpace=wrap;html=1;" parent="xCIMGPuieZ38wntVMGZL-4" vertex="1">
          <mxGeometry x="80" y="81" width="100" height="16" as="geometry" />
        </mxCell>
        <mxCell id="xCIMGPuieZ38wntVMGZL-129" value="receive_loop()" style="rounded=0;whiteSpace=wrap;html=1;" parent="xCIMGPuieZ38wntVMGZL-4" vertex="1">
          <mxGeometry x="80" y="105.5" width="100" height="19" as="geometry" />
        </mxCell>
        <mxCell id="xCIMGPuieZ38wntVMGZL-21" style="edgeStyle=orthogonalEdgeStyle;rounded=0;orthogonalLoop=1;jettySize=auto;html=1;entryX=0;entryY=0.5;entryDx=0;entryDy=0;" parent="1" source="xCIMGPuieZ38wntVMGZL-8" target="xCIMGPuieZ38wntVMGZL-16" edge="1">
          <mxGeometry relative="1" as="geometry">
            <mxPoint x="530" y="370" as="targetPoint" />
            <Array as="points">
              <mxPoint x="129" y="341" />
            </Array>
          </mxGeometry>
        </mxCell>
        <mxCell id="xCIMGPuieZ38wntVMGZL-8" value="" style="shape=mxgraph.signs.tech.video_camera;html=1;pointerEvents=1;fillColor=#000000;strokeColor=none;verticalLabelPosition=bottom;verticalAlign=top;align=center;" parent="1" vertex="1">
          <mxGeometry x="80" y="80" width="98" height="40" as="geometry" />
        </mxCell>
        <mxCell id="xCIMGPuieZ38wntVMGZL-10" value="User" style="swimlane;whiteSpace=wrap;html=1;container=1;collapsible=0;comic=0;noLabel=0;swimlaneFillColor=#CCE5FF;fillColor=#dae8fc;strokeColor=#6c8ebf;" parent="1" vertex="1">
          <mxGeometry x="1040" y="490" width="460" height="410" as="geometry" />
        </mxCell>
        <mxCell id="xCIMGPuieZ38wntVMGZL-58" style="edgeStyle=orthogonalEdgeStyle;rounded=0;orthogonalLoop=1;jettySize=auto;html=1;entryX=0;entryY=0.25;entryDx=0;entryDy=0;exitX=0.5;exitY=0;exitDx=0;exitDy=0;exitPerimeter=0;" parent="xCIMGPuieZ38wntVMGZL-10" source="xCIMGPuieZ38wntVMGZL-63" target="xCIMGPuieZ38wntVMGZL-59" edge="1">
          <mxGeometry relative="1" as="geometry">
            <mxPoint x="195" y="235.5" as="targetPoint" />
          </mxGeometry>
        </mxCell>
        <mxCell id="xCIMGPuieZ38wntVMGZL-62" style="edgeStyle=orthogonalEdgeStyle;rounded=0;orthogonalLoop=1;jettySize=auto;html=1;entryX=0;entryY=0.25;entryDx=0;entryDy=0;exitX=0.5;exitY=1;exitDx=0;exitDy=0;exitPerimeter=0;" parent="xCIMGPuieZ38wntVMGZL-10" source="xCIMGPuieZ38wntVMGZL-63" target="xCIMGPuieZ38wntVMGZL-61" edge="1">
          <mxGeometry relative="1" as="geometry" />
        </mxCell>
        <mxCell id="xCIMGPuieZ38wntVMGZL-64" style="edgeStyle=orthogonalEdgeStyle;rounded=0;orthogonalLoop=1;jettySize=auto;html=1;entryX=0;entryY=0.5;entryDx=0;entryDy=0;entryPerimeter=0;" parent="xCIMGPuieZ38wntVMGZL-10" source="xCIMGPuieZ38wntVMGZL-57" target="xCIMGPuieZ38wntVMGZL-63" edge="1">
          <mxGeometry relative="1" as="geometry" />
        </mxCell>
        <mxCell id="xCIMGPuieZ38wntVMGZL-57" value="udp socket&lt;br&gt;(Video)" style="rounded=0;whiteSpace=wrap;html=1;" parent="xCIMGPuieZ38wntVMGZL-10" vertex="1">
          <mxGeometry x="15" y="249.5" width="80" height="30" as="geometry" />
        </mxCell>
        <mxCell id="xCIMGPuieZ38wntVMGZL-59" value="gstreamer" style="swimlane;fontStyle=0;childLayout=stackLayout;horizontal=1;startSize=26;fillColor=#ffe6cc;horizontalStack=0;resizeParent=1;resizeParentMax=0;resizeLast=0;collapsible=0;marginBottom=0;whiteSpace=wrap;html=1;strokeColor=#d79b00;swimlaneFillColor=default;" parent="xCIMGPuieZ38wntVMGZL-10" vertex="1">
          <mxGeometry x="175" y="200" width="140" height="52" as="geometry" />
        </mxCell>
        <mxCell id="xCIMGPuieZ38wntVMGZL-61" value="VLC" style="swimlane;fontStyle=0;childLayout=stackLayout;horizontal=1;startSize=26;fillColor=#ffe6cc;horizontalStack=0;resizeParent=1;resizeParentMax=0;resizeLast=0;collapsible=0;marginBottom=0;whiteSpace=wrap;html=1;strokeColor=#d79b00;swimlaneFillColor=default;" parent="xCIMGPuieZ38wntVMGZL-10" vertex="1">
          <mxGeometry x="175" y="299.5" width="140" height="52" as="geometry" />
        </mxCell>
        <mxCell id="xCIMGPuieZ38wntVMGZL-63" value="" style="strokeWidth=2;html=1;shape=mxgraph.flowchart.decision;whiteSpace=wrap;" parent="xCIMGPuieZ38wntVMGZL-10" vertex="1">
          <mxGeometry x="115" y="252" width="30" height="25" as="geometry" />
        </mxCell>
        <mxCell id="xCIMGPuieZ38wntVMGZL-69" value="" style="sketch=0;aspect=fixed;pointerEvents=1;shadow=0;dashed=0;html=1;strokeColor=none;labelPosition=center;verticalLabelPosition=bottom;verticalAlign=top;align=center;fillColor=#00188D;shape=mxgraph.mscae.enterprise.client_application" parent="xCIMGPuieZ38wntVMGZL-10" vertex="1">
          <mxGeometry x="155" y="60" width="140.63" height="90" as="geometry" />
        </mxCell>
        <mxCell id="xCIMGPuieZ38wntVMGZL-76" style="edgeStyle=orthogonalEdgeStyle;rounded=0;orthogonalLoop=1;jettySize=auto;html=1;entryX=0.08;entryY=0.5;entryDx=0;entryDy=0;entryPerimeter=0;startArrow=classic;startFill=1;" parent="xCIMGPuieZ38wntVMGZL-10" source="xCIMGPuieZ38wntVMGZL-75" target="xCIMGPuieZ38wntVMGZL-69" edge="1">
          <mxGeometry relative="1" as="geometry" />
        </mxCell>
        <mxCell id="xCIMGPuieZ38wntVMGZL-75" value="udp socket&lt;br&gt;(Messages)" style="rounded=0;whiteSpace=wrap;html=1;" parent="xCIMGPuieZ38wntVMGZL-10" vertex="1">
          <mxGeometry x="15" y="90" width="80" height="30" as="geometry" />
        </mxCell>
        <mxCell id="xCIMGPuieZ38wntVMGZL-9" value="" style="image;html=1;image=img/lib/clip_art/computers/Monitor_128x128.png;align=center;verticalAlign=top;" parent="xCIMGPuieZ38wntVMGZL-10" vertex="1">
          <mxGeometry x="365" y="224.5" width="80" height="75" as="geometry" />
        </mxCell>
        <mxCell id="xCIMGPuieZ38wntVMGZL-66" style="edgeStyle=orthogonalEdgeStyle;rounded=0;orthogonalLoop=1;jettySize=auto;html=1;" parent="xCIMGPuieZ38wntVMGZL-10" source="xCIMGPuieZ38wntVMGZL-61" target="xCIMGPuieZ38wntVMGZL-9" edge="1">
          <mxGeometry relative="1" as="geometry" />
        </mxCell>
        <mxCell id="xCIMGPuieZ38wntVMGZL-65" style="edgeStyle=orthogonalEdgeStyle;rounded=0;orthogonalLoop=1;jettySize=auto;html=1;" parent="xCIMGPuieZ38wntVMGZL-10" source="xCIMGPuieZ38wntVMGZL-59" target="xCIMGPuieZ38wntVMGZL-9" edge="1">
          <mxGeometry relative="1" as="geometry" />
        </mxCell>
        <mxCell id="xCIMGPuieZ38wntVMGZL-23" style="edgeStyle=orthogonalEdgeStyle;rounded=0;orthogonalLoop=1;jettySize=auto;html=1;entryX=0.5;entryY=1;entryDx=0;entryDy=0;entryPerimeter=0;" parent="1" source="xCIMGPuieZ38wntVMGZL-15" target="xCIMGPuieZ38wntVMGZL-8" edge="1">
          <mxGeometry relative="1" as="geometry" />
        </mxCell>
        <mxCell id="xCIMGPuieZ38wntVMGZL-24" style="edgeStyle=orthogonalEdgeStyle;rounded=0;orthogonalLoop=1;jettySize=auto;html=1;entryX=0.5;entryY=1;entryDx=0;entryDy=0;entryPerimeter=0;" parent="1" source="xCIMGPuieZ38wntVMGZL-14" target="xCIMGPuieZ38wntVMGZL-8" edge="1">
          <mxGeometry relative="1" as="geometry">
            <mxPoint x="820" y="269.9999999999998" as="targetPoint" />
          </mxGeometry>
        </mxCell>
        <mxCell id="xCIMGPuieZ38wntVMGZL-36" value="" style="image;html=1;image=img/lib/clip_art/computers/Monitor_128x128.png" parent="1" vertex="1">
          <mxGeometry x="711" y="50" width="90" height="70" as="geometry" />
        </mxCell>
        <mxCell id="xCIMGPuieZ38wntVMGZL-37" style="edgeStyle=orthogonalEdgeStyle;rounded=0;orthogonalLoop=1;jettySize=auto;html=1;entryX=0.25;entryY=1;entryDx=0;entryDy=0;" parent="1" source="xCIMGPuieZ38wntVMGZL-31" target="xCIMGPuieZ38wntVMGZL-36" edge="1">
          <mxGeometry relative="1" as="geometry" />
        </mxCell>
        <mxCell id="xCIMGPuieZ38wntVMGZL-38" value="&lt;br&gt;Rec" style="strokeWidth=2;html=1;shape=mxgraph.flowchart.database;whiteSpace=wrap;" parent="1" vertex="1">
          <mxGeometry x="640" y="60" width="60" height="60" as="geometry" />
        </mxCell>
        <mxCell id="xCIMGPuieZ38wntVMGZL-40" style="edgeStyle=orthogonalEdgeStyle;rounded=0;orthogonalLoop=1;jettySize=auto;html=1;" parent="1" source="xCIMGPuieZ38wntVMGZL-32" target="xCIMGPuieZ38wntVMGZL-38" edge="1">
          <mxGeometry relative="1" as="geometry" />
        </mxCell>
        <mxCell id="xCIMGPuieZ38wntVMGZL-3" value="GstSender" style="swimlane;whiteSpace=wrap;html=1;container=1;collapsible=0;comic=0;noLabel=0;swimlaneFillColor=#E6FFCC;fillColor=#d5e8d4;strokeColor=#82b366;" parent="1" vertex="1">
          <mxGeometry x="156" y="460" width="671" height="200" as="geometry" />
        </mxCell>
        <mxCell id="xCIMGPuieZ38wntVMGZL-45" style="edgeStyle=orthogonalEdgeStyle;rounded=0;orthogonalLoop=1;jettySize=auto;html=1;entryX=0.5;entryY=0;entryDx=0;entryDy=0;entryPerimeter=0;exitX=1;exitY=0.5;exitDx=0;exitDy=0;" parent="xCIMGPuieZ38wntVMGZL-3" source="xCIMGPuieZ38wntVMGZL-11" target="xCIMGPuieZ38wntVMGZL-49" edge="1">
          <mxGeometry relative="1" as="geometry">
            <Array as="points">
              <mxPoint x="151" y="75" />
            </Array>
          </mxGeometry>
        </mxCell>
        <mxCell id="xCIMGPuieZ38wntVMGZL-11" value="appsrc" style="rounded=0;whiteSpace=wrap;html=1;" parent="xCIMGPuieZ38wntVMGZL-3" vertex="1">
          <mxGeometry x="21" y="60" width="80" height="30" as="geometry" />
        </mxCell>
        <mxCell id="xCIMGPuieZ38wntVMGZL-46" style="edgeStyle=orthogonalEdgeStyle;rounded=0;orthogonalLoop=1;jettySize=auto;html=1;" parent="xCIMGPuieZ38wntVMGZL-3" source="xCIMGPuieZ38wntVMGZL-42" target="xCIMGPuieZ38wntVMGZL-43" edge="1">
          <mxGeometry relative="1" as="geometry" />
        </mxCell>
        <mxCell id="xCIMGPuieZ38wntVMGZL-42" value="h265enc" style="rounded=0;whiteSpace=wrap;html=1;" parent="xCIMGPuieZ38wntVMGZL-3" vertex="1">
          <mxGeometry x="231" y="100" width="80" height="30" as="geometry" />
        </mxCell>
        <mxCell id="xCIMGPuieZ38wntVMGZL-47" style="edgeStyle=orthogonalEdgeStyle;rounded=0;orthogonalLoop=1;jettySize=auto;html=1;entryX=0;entryY=0.5;entryDx=0;entryDy=0;exitX=0.5;exitY=0;exitDx=0;exitDy=0;exitPerimeter=0;" parent="xCIMGPuieZ38wntVMGZL-3" source="xCIMGPuieZ38wntVMGZL-48" target="xCIMGPuieZ38wntVMGZL-44" edge="1">
          <mxGeometry relative="1" as="geometry" />
        </mxCell>
        <mxCell id="xCIMGPuieZ38wntVMGZL-51" style="edgeStyle=orthogonalEdgeStyle;rounded=0;orthogonalLoop=1;jettySize=auto;html=1;entryX=0;entryY=0.5;entryDx=0;entryDy=0;entryPerimeter=0;" parent="xCIMGPuieZ38wntVMGZL-3" source="xCIMGPuieZ38wntVMGZL-43" target="xCIMGPuieZ38wntVMGZL-48" edge="1">
          <mxGeometry relative="1" as="geometry" />
        </mxCell>
        <mxCell id="xCIMGPuieZ38wntVMGZL-43" value="rtph265pay" style="rounded=0;whiteSpace=wrap;html=1;" parent="xCIMGPuieZ38wntVMGZL-3" vertex="1">
          <mxGeometry x="331" y="100" width="80" height="30" as="geometry" />
        </mxCell>
        <mxCell id="xCIMGPuieZ38wntVMGZL-44" value="autovideosink" style="rounded=0;whiteSpace=wrap;html=1;" parent="xCIMGPuieZ38wntVMGZL-3" vertex="1">
          <mxGeometry x="551" y="60" width="80" height="30" as="geometry" />
        </mxCell>
        <mxCell id="xCIMGPuieZ38wntVMGZL-55" style="edgeStyle=orthogonalEdgeStyle;rounded=0;orthogonalLoop=1;jettySize=auto;html=1;entryX=0;entryY=0.5;entryDx=0;entryDy=0;exitX=0.5;exitY=1;exitDx=0;exitDy=0;exitPerimeter=0;" parent="xCIMGPuieZ38wntVMGZL-3" source="xCIMGPuieZ38wntVMGZL-48" target="xCIMGPuieZ38wntVMGZL-54" edge="1">
          <mxGeometry relative="1" as="geometry" />
        </mxCell>
        <mxCell id="xCIMGPuieZ38wntVMGZL-48" value="send_not_show" style="strokeWidth=2;html=1;shape=mxgraph.flowchart.decision;whiteSpace=wrap;" parent="xCIMGPuieZ38wntVMGZL-3" vertex="1">
          <mxGeometry x="441" y="95" width="100" height="40" as="geometry" />
        </mxCell>
        <mxCell id="xCIMGPuieZ38wntVMGZL-50" style="edgeStyle=orthogonalEdgeStyle;rounded=0;orthogonalLoop=1;jettySize=auto;html=1;entryX=0;entryY=0.5;entryDx=0;entryDy=0;" parent="xCIMGPuieZ38wntVMGZL-3" source="xCIMGPuieZ38wntVMGZL-49" target="xCIMGPuieZ38wntVMGZL-42" edge="1">
          <mxGeometry relative="1" as="geometry" />
        </mxCell>
        <mxCell id="xCIMGPuieZ38wntVMGZL-49" value="from_testvideo" style="strokeWidth=2;html=1;shape=mxgraph.flowchart.decision;whiteSpace=wrap;" parent="xCIMGPuieZ38wntVMGZL-3" vertex="1">
          <mxGeometry x="101" y="95" width="100" height="40" as="geometry" />
        </mxCell>
        <mxCell id="xCIMGPuieZ38wntVMGZL-53" style="edgeStyle=orthogonalEdgeStyle;rounded=0;orthogonalLoop=1;jettySize=auto;html=1;exitX=1;exitY=0.5;exitDx=0;exitDy=0;" parent="xCIMGPuieZ38wntVMGZL-3" source="xCIMGPuieZ38wntVMGZL-52" target="xCIMGPuieZ38wntVMGZL-49" edge="1">
          <mxGeometry relative="1" as="geometry" />
        </mxCell>
        <mxCell id="xCIMGPuieZ38wntVMGZL-52" value="videotestsrc" style="rounded=0;whiteSpace=wrap;html=1;" parent="xCIMGPuieZ38wntVMGZL-3" vertex="1">
          <mxGeometry x="21" y="140" width="80" height="30" as="geometry" />
        </mxCell>
        <mxCell id="xCIMGPuieZ38wntVMGZL-54" value="udpsink" style="rounded=0;whiteSpace=wrap;html=1;" parent="xCIMGPuieZ38wntVMGZL-3" vertex="1">
          <mxGeometry x="551" y="140" width="80" height="30" as="geometry" />
        </mxCell>
        <mxCell id="xCIMGPuieZ38wntVMGZL-56" style="edgeStyle=orthogonalEdgeStyle;rounded=0;orthogonalLoop=1;jettySize=auto;html=1;entryX=0.5;entryY=1;entryDx=0;entryDy=0;" parent="1" source="xCIMGPuieZ38wntVMGZL-44" target="xCIMGPuieZ38wntVMGZL-36" edge="1">
          <mxGeometry relative="1" as="geometry">
            <Array as="points">
              <mxPoint x="840" y="535" />
              <mxPoint x="840" y="140" />
              <mxPoint x="756" y="140" />
            </Array>
          </mxGeometry>
        </mxCell>
        <mxCell id="xCIMGPuieZ38wntVMGZL-67" style="edgeStyle=orthogonalEdgeStyle;rounded=0;orthogonalLoop=1;jettySize=auto;html=1;entryX=0;entryY=0.5;entryDx=0;entryDy=0;fillColor=#f8cecc;strokeColor=#b85450;" parent="1" source="xCIMGPuieZ38wntVMGZL-54" target="xCIMGPuieZ38wntVMGZL-57" edge="1">
          <mxGeometry relative="1" as="geometry">
            <Array as="points">
              <mxPoint x="940" y="615" />
              <mxPoint x="940" y="755" />
            </Array>
          </mxGeometry>
        </mxCell>
        <mxCell id="xCIMGPuieZ38wntVMGZL-68" value="h265" style="edgeLabel;html=1;align=center;verticalAlign=middle;resizable=0;points=[];" parent="xCIMGPuieZ38wntVMGZL-67" vertex="1" connectable="0">
          <mxGeometry x="0.0918" y="-1" relative="1" as="geometry">
            <mxPoint as="offset" />
          </mxGeometry>
        </mxCell>
        <mxCell id="xCIMGPuieZ38wntVMGZL-78" style="edgeStyle=orthogonalEdgeStyle;rounded=0;orthogonalLoop=1;jettySize=auto;html=1;entryX=0;entryY=0.5;entryDx=0;entryDy=0;startArrow=classic;startFill=1;fillColor=#f8cecc;strokeColor=#b85450;exitX=1;exitY=0.25;exitDx=0;exitDy=0;" parent="1" source="xCIMGPuieZ38wntVMGZL-71" target="xCIMGPuieZ38wntVMGZL-75" edge="1">
          <mxGeometry relative="1" as="geometry">
            <Array as="points">
              <mxPoint x="1370" y="220" />
              <mxPoint x="1370" y="460" />
              <mxPoint x="1000" y="460" />
              <mxPoint x="1000" y="595" />
            </Array>
          </mxGeometry>
        </mxCell>
        <mxCell id="xCIMGPuieZ38wntVMGZL-124" value="Commands / Reports" style="edgeLabel;html=1;align=center;verticalAlign=middle;resizable=0;points=[];" parent="xCIMGPuieZ38wntVMGZL-78" vertex="1" connectable="0">
          <mxGeometry x="0.0651" y="3" relative="1" as="geometry">
            <mxPoint as="offset" />
          </mxGeometry>
        </mxCell>
        <mxCell id="xCIMGPuieZ38wntVMGZL-88" style="edgeStyle=orthogonalEdgeStyle;rounded=0;orthogonalLoop=1;jettySize=auto;html=1;exitX=0;exitY=0.5;exitDx=0;exitDy=0;entryX=1;entryY=0.5;entryDx=0;entryDy=0;" parent="1" source="xCIMGPuieZ38wntVMGZL-129" target="xCIMGPuieZ38wntVMGZL-127" edge="1">
          <mxGeometry relative="1" as="geometry">
            <mxPoint x="960" y="335" as="sourcePoint" />
            <mxPoint x="870" y="420" as="targetPoint" />
            <Array as="points">
              <mxPoint x="940" y="265" />
              <mxPoint x="940" y="386" />
            </Array>
          </mxGeometry>
        </mxCell>
        <mxCell id="xCIMGPuieZ38wntVMGZL-95" style="edgeStyle=orthogonalEdgeStyle;rounded=0;orthogonalLoop=1;jettySize=auto;html=1;entryX=0;entryY=0.5;entryDx=0;entryDy=0;exitX=1;exitY=0.5;exitDx=0;exitDy=0;" parent="1" source="xCIMGPuieZ38wntVMGZL-121" target="xCIMGPuieZ38wntVMGZL-128" edge="1">
          <mxGeometry relative="1" as="geometry">
            <mxPoint x="120" y="860" as="targetPoint" />
            <mxPoint x="180" y="392.9999999999998" as="sourcePoint" />
            <Array as="points">
              <mxPoint x="910" y="322" />
              <mxPoint x="910" y="239" />
            </Array>
          </mxGeometry>
        </mxCell>
        <mxCell id="xCIMGPuieZ38wntVMGZL-41" style="edgeStyle=orthogonalEdgeStyle;rounded=0;orthogonalLoop=1;jettySize=auto;html=1;entryX=0;entryY=0.5;entryDx=0;entryDy=0;exitX=0;exitY=0.5;exitDx=0;exitDy=0;jumpStyle=arc;" parent="1" source="xCIMGPuieZ38wntVMGZL-33" target="xCIMGPuieZ38wntVMGZL-11" edge="1">
          <mxGeometry relative="1" as="geometry">
            <Array as="points">
              <mxPoint x="390" y="295" />
              <mxPoint x="390" y="420" />
              <mxPoint x="130" y="420" />
              <mxPoint x="130" y="535" />
            </Array>
          </mxGeometry>
        </mxCell>
        <mxCell id="xCIMGPuieZ38wntVMGZL-131" value="User commands simulator" style="swimlane;whiteSpace=wrap;html=1;container=1;collapsible=0;comic=0;noLabel=0;swimlaneFillColor=#CCE5FF;fillColor=#dae8fc;strokeColor=#6c8ebf;" parent="1" vertex="1">
          <mxGeometry x="1450" y="160" width="300" height="160" as="geometry" />
        </mxCell>
        <mxCell id="xCIMGPuieZ38wntVMGZL-140" style="edgeStyle=orthogonalEdgeStyle;rounded=0;orthogonalLoop=1;jettySize=auto;html=1;entryX=0.023;entryY=0.128;entryDx=0;entryDy=0;startArrow=classic;startFill=1;entryPerimeter=0;exitX=1;exitY=0.167;exitDx=0;exitDy=0;exitPerimeter=0;" parent="xCIMGPuieZ38wntVMGZL-131" source="oWSNDk2EN39_WZRkwcnR-15" target="xCIMGPuieZ38wntVMGZL-146" edge="1">
          <mxGeometry relative="1" as="geometry">
            <mxPoint x="160" y="105" as="targetPoint" />
            <mxPoint x="95" y="105" as="sourcePoint" />
          </mxGeometry>
        </mxCell>
        <mxCell id="xCIMGPuieZ38wntVMGZL-146" value="CommandsSimulator" style="swimlane;fontStyle=0;childLayout=stackLayout;horizontal=1;startSize=26;fillColor=#ffe6cc;horizontalStack=0;resizeParent=1;resizeParentMax=0;resizeLast=0;collapsible=0;marginBottom=0;whiteSpace=wrap;html=1;strokeColor=#d79b00;swimlaneFillColor=default;" parent="xCIMGPuieZ38wntVMGZL-131" vertex="1">
          <mxGeometry x="160" y="41" width="130" height="78" as="geometry" />
        </mxCell>
        <mxCell id="xCIMGPuieZ38wntVMGZL-147" value="print_received()" style="text;strokeColor=none;fillColor=none;align=left;verticalAlign=top;spacingLeft=4;spacingRight=4;overflow=hidden;rotatable=0;points=[[0,0.5],[1,0.5]];portConstraint=eastwest;whiteSpace=wrap;html=1;" parent="xCIMGPuieZ38wntVMGZL-146" vertex="1">
          <mxGeometry y="26" width="130" height="26" as="geometry" />
        </mxCell>
        <mxCell id="xCIMGPuieZ38wntVMGZL-148" value="send_loop()" style="text;strokeColor=none;fillColor=none;align=left;verticalAlign=top;spacingLeft=4;spacingRight=4;overflow=hidden;rotatable=0;points=[[0,0.5],[1,0.5]];portConstraint=eastwest;whiteSpace=wrap;html=1;" parent="xCIMGPuieZ38wntVMGZL-146" vertex="1">
          <mxGeometry y="52" width="130" height="26" as="geometry" />
        </mxCell>
        <mxCell id="oWSNDk2EN39_WZRkwcnR-15" value="Communicator" style="swimlane;fontStyle=0;childLayout=stackLayout;horizontal=1;startSize=26;fillColor=#ffe6cc;horizontalStack=0;resizeParent=1;resizeParentMax=0;resizeLast=0;collapsible=0;marginBottom=0;whiteSpace=wrap;html=1;strokeColor=#d79b00;swimlaneFillColor=default;" vertex="1" parent="xCIMGPuieZ38wntVMGZL-131">
          <mxGeometry x="20" y="40" width="90" height="78" as="geometry" />
        </mxCell>
        <mxCell id="oWSNDk2EN39_WZRkwcnR-16" value="send()" style="text;strokeColor=none;fillColor=none;align=left;verticalAlign=top;spacingLeft=4;spacingRight=4;overflow=hidden;rotatable=0;points=[[0,0.5],[1,0.5]];portConstraint=eastwest;whiteSpace=wrap;html=1;" vertex="1" parent="oWSNDk2EN39_WZRkwcnR-15">
          <mxGeometry y="26" width="90" height="26" as="geometry" />
        </mxCell>
        <mxCell id="oWSNDk2EN39_WZRkwcnR-17" value="recev_select()" style="text;strokeColor=none;fillColor=none;align=left;verticalAlign=top;spacingLeft=4;spacingRight=4;overflow=hidden;rotatable=0;points=[[0,0.5],[1,0.5]];portConstraint=eastwest;whiteSpace=wrap;html=1;" vertex="1" parent="oWSNDk2EN39_WZRkwcnR-15">
          <mxGeometry y="52" width="90" height="26" as="geometry" />
        </mxCell>
        <mxCell id="xCIMGPuieZ38wntVMGZL-149" style="edgeStyle=orthogonalEdgeStyle;rounded=0;orthogonalLoop=1;jettySize=auto;html=1;entryX=1;entryY=0.25;entryDx=0;entryDy=0;startArrow=classic;startFill=1;fillColor=#f8cecc;strokeColor=#b85450;exitX=-0.022;exitY=0.179;exitDx=0;exitDy=0;exitPerimeter=0;" parent="1" source="oWSNDk2EN39_WZRkwcnR-15" target="xCIMGPuieZ38wntVMGZL-71" edge="1">
          <mxGeometry relative="1" as="geometry">
            <mxPoint x="1400" y="230" as="sourcePoint" />
            <Array as="points">
              <mxPoint x="1370" y="214" />
              <mxPoint x="1370" y="220" />
              <mxPoint x="1290" y="220" />
            </Array>
          </mxGeometry>
        </mxCell>
        <mxCell id="oWSNDk2EN39_WZRkwcnR-1" value="Communicator" style="swimlane;whiteSpace=wrap;html=1;container=1;collapsible=0;comic=0;noLabel=0;swimlaneFillColor=#E6FFCC;fillColor=#d5e8d4;strokeColor=#82b366;" vertex="1" parent="1">
          <mxGeometry x="1260" y="-20" width="220" height="140" as="geometry" />
        </mxCell>
        <mxCell id="oWSNDk2EN39_WZRkwcnR-2" value="RIDA&lt;br&gt;ctypes&lt;br&gt;interface" style="rounded=0;whiteSpace=wrap;html=1;" vertex="1" parent="oWSNDk2EN39_WZRkwcnR-1">
          <mxGeometry x="20" y="40" width="80" height="60" as="geometry" />
        </mxCell>
        <mxCell id="oWSNDk2EN39_WZRkwcnR-3" value="UDP imp" style="swimlane;fontStyle=0;childLayout=stackLayout;horizontal=1;startSize=26;fillColor=#ffe6cc;horizontalStack=0;resizeParent=1;resizeParentMax=0;resizeLast=0;collapsible=0;marginBottom=0;whiteSpace=wrap;html=1;strokeColor=#d79b00;swimlaneFillColor=default;" vertex="1" parent="oWSNDk2EN39_WZRkwcnR-1">
          <mxGeometry x="120" y="40" width="90" height="78" as="geometry" />
        </mxCell>
        <mxCell id="oWSNDk2EN39_WZRkwcnR-4" value="send()" style="text;strokeColor=none;fillColor=none;align=left;verticalAlign=top;spacingLeft=4;spacingRight=4;overflow=hidden;rotatable=0;points=[[0,0.5],[1,0.5]];portConstraint=eastwest;whiteSpace=wrap;html=1;" vertex="1" parent="oWSNDk2EN39_WZRkwcnR-3">
          <mxGeometry y="26" width="90" height="26" as="geometry" />
        </mxCell>
        <mxCell id="oWSNDk2EN39_WZRkwcnR-5" value="recev_select()" style="text;strokeColor=none;fillColor=none;align=left;verticalAlign=top;spacingLeft=4;spacingRight=4;overflow=hidden;rotatable=0;points=[[0,0.5],[1,0.5]];portConstraint=eastwest;whiteSpace=wrap;html=1;" vertex="1" parent="oWSNDk2EN39_WZRkwcnR-3">
          <mxGeometry y="52" width="90" height="26" as="geometry" />
        </mxCell>
      </root>
    </mxGraphModel>
  </diagram>
</mxfile>
